<mxfile host="app.diagrams.net" agent="Mozilla/5.0 (Windows NT 10.0; Win64; x64) AppleWebKit/537.36 (KHTML, like Gecko) Chrome/127.0.0.0 Safari/537.36" version="27.0.8">
  <diagram name="第 1 页" id="wVWKrJXU-yImbUKQeMF2">
    <mxGraphModel dx="1025" dy="526" grid="1" gridSize="10" guides="1" tooltips="1" connect="1" arrows="1" fold="1" page="1" pageScale="1" pageWidth="1654" pageHeight="2336" math="0" shadow="0">
      <root>
        <mxCell id="0" />
        <mxCell id="1" parent="0" />
        <mxCell id="zHNv5ihg5opv5PIdIR2H-1" value="乳腺肿块检测与评级系统" style="rounded=0;whiteSpace=wrap;html=1;" vertex="1" parent="1">
          <mxGeometry x="80" y="400" width="80" height="40" as="geometry" />
        </mxCell>
        <mxCell id="zHNv5ihg5opv5PIdIR2H-2" value="数据准备与图像预处理" style="rounded=0;whiteSpace=wrap;html=1;" vertex="1" parent="1">
          <mxGeometry x="200" y="200" width="80" height="40" as="geometry" />
        </mxCell>
        <mxCell id="zHNv5ihg5opv5PIdIR2H-3" value="检测与评级模型构建" style="rounded=0;whiteSpace=wrap;html=1;" vertex="1" parent="1">
          <mxGeometry x="200" y="480" width="80" height="40" as="geometry" />
        </mxCell>
        <mxCell id="zHNv5ihg5opv5PIdIR2H-4" value="系统开发" style="rounded=0;whiteSpace=wrap;html=1;" vertex="1" parent="1">
          <mxGeometry x="200" y="680" width="80" height="40" as="geometry" />
        </mxCell>
        <mxCell id="zHNv5ihg5opv5PIdIR2H-6" value="数据集选择与格式转换" style="rounded=0;whiteSpace=wrap;html=1;" vertex="1" parent="1">
          <mxGeometry x="320" y="80" width="80" height="40" as="geometry" />
        </mxCell>
        <mxCell id="zHNv5ihg5opv5PIdIR2H-7" value="数据增强" style="rounded=0;whiteSpace=wrap;html=1;" vertex="1" parent="1">
          <mxGeometry x="320" y="160" width="80" height="40" as="geometry" />
        </mxCell>
        <mxCell id="zHNv5ihg5opv5PIdIR2H-8" value="图像对比度提升" style="rounded=0;whiteSpace=wrap;html=1;" vertex="1" parent="1">
          <mxGeometry x="320" y="240" width="80" height="40" as="geometry" />
        </mxCell>
        <mxCell id="zHNv5ihg5opv5PIdIR2H-9" value="数据集制作" style="rounded=0;whiteSpace=wrap;html=1;" vertex="1" parent="1">
          <mxGeometry x="320" y="320" width="80" height="40" as="geometry" />
        </mxCell>
        <mxCell id="zHNv5ihg5opv5PIdIR2H-10" value="模型选择与构建" style="rounded=0;whiteSpace=wrap;html=1;" vertex="1" parent="1">
          <mxGeometry x="320" y="400" width="80" height="40" as="geometry" />
        </mxCell>
        <mxCell id="zHNv5ihg5opv5PIdIR2H-11" value="模型训练与调参" style="rounded=0;whiteSpace=wrap;html=1;" vertex="1" parent="1">
          <mxGeometry x="320" y="480" width="80" height="40" as="geometry" />
        </mxCell>
        <mxCell id="zHNv5ihg5opv5PIdIR2H-12" value="模型评估与对比实验" style="rounded=0;whiteSpace=wrap;html=1;" vertex="1" parent="1">
          <mxGeometry x="320" y="560" width="80" height="40" as="geometry" />
        </mxCell>
        <mxCell id="zHNv5ihg5opv5PIdIR2H-13" value="需求分析" style="rounded=0;whiteSpace=wrap;html=1;" vertex="1" parent="1">
          <mxGeometry x="320" y="640" width="80" height="40" as="geometry" />
        </mxCell>
        <mxCell id="zHNv5ihg5opv5PIdIR2H-14" value="功能实现" style="rounded=0;whiteSpace=wrap;html=1;" vertex="1" parent="1">
          <mxGeometry x="320" y="720" width="80" height="40" as="geometry" />
        </mxCell>
        <mxCell id="zHNv5ihg5opv5PIdIR2H-17" value="" style="endArrow=none;html=1;rounded=0;" edge="1" parent="1">
          <mxGeometry width="50" height="50" relative="1" as="geometry">
            <mxPoint x="280" y="219.74" as="sourcePoint" />
            <mxPoint x="300" y="220" as="targetPoint" />
          </mxGeometry>
        </mxCell>
        <mxCell id="zHNv5ihg5opv5PIdIR2H-18" value="" style="endArrow=classic;html=1;rounded=0;entryX=0;entryY=0.5;entryDx=0;entryDy=0;" edge="1" parent="1" target="zHNv5ihg5opv5PIdIR2H-6">
          <mxGeometry width="50" height="50" relative="1" as="geometry">
            <mxPoint x="300" y="220" as="sourcePoint" />
            <mxPoint x="300" y="80" as="targetPoint" />
            <Array as="points">
              <mxPoint x="300" y="100" />
            </Array>
          </mxGeometry>
        </mxCell>
        <mxCell id="zHNv5ihg5opv5PIdIR2H-19" value="" style="endArrow=classic;html=1;rounded=0;" edge="1" parent="1">
          <mxGeometry width="50" height="50" relative="1" as="geometry">
            <mxPoint x="300" y="179.74" as="sourcePoint" />
            <mxPoint x="320" y="180" as="targetPoint" />
          </mxGeometry>
        </mxCell>
        <mxCell id="zHNv5ihg5opv5PIdIR2H-20" value="" style="endArrow=classic;html=1;rounded=0;entryX=0;entryY=0.5;entryDx=0;entryDy=0;" edge="1" parent="1" target="zHNv5ihg5opv5PIdIR2H-9">
          <mxGeometry width="50" height="50" relative="1" as="geometry">
            <mxPoint x="300" y="220" as="sourcePoint" />
            <mxPoint x="300" y="370" as="targetPoint" />
            <Array as="points">
              <mxPoint x="300" y="340" />
            </Array>
          </mxGeometry>
        </mxCell>
        <mxCell id="zHNv5ihg5opv5PIdIR2H-21" value="" style="endArrow=classic;html=1;rounded=0;" edge="1" parent="1">
          <mxGeometry width="50" height="50" relative="1" as="geometry">
            <mxPoint x="300" y="259.93" as="sourcePoint" />
            <mxPoint x="320" y="260" as="targetPoint" />
          </mxGeometry>
        </mxCell>
        <mxCell id="zHNv5ihg5opv5PIdIR2H-22" value="" style="endArrow=none;html=1;rounded=0;" edge="1" parent="1">
          <mxGeometry width="50" height="50" relative="1" as="geometry">
            <mxPoint x="280" y="499.82" as="sourcePoint" />
            <mxPoint x="300" y="500" as="targetPoint" />
          </mxGeometry>
        </mxCell>
        <mxCell id="zHNv5ihg5opv5PIdIR2H-23" value="" style="endArrow=classic;html=1;rounded=0;entryX=-0.025;entryY=0.484;entryDx=0;entryDy=0;entryPerimeter=0;" edge="1" parent="1" target="zHNv5ihg5opv5PIdIR2H-10">
          <mxGeometry width="50" height="50" relative="1" as="geometry">
            <mxPoint x="300" y="500" as="sourcePoint" />
            <mxPoint x="300" y="400" as="targetPoint" />
            <Array as="points">
              <mxPoint x="300" y="420" />
            </Array>
          </mxGeometry>
        </mxCell>
        <mxCell id="zHNv5ihg5opv5PIdIR2H-24" value="" style="endArrow=classic;html=1;rounded=0;entryX=0;entryY=0.5;entryDx=0;entryDy=0;" edge="1" parent="1" target="zHNv5ihg5opv5PIdIR2H-12">
          <mxGeometry width="50" height="50" relative="1" as="geometry">
            <mxPoint x="300" y="500" as="sourcePoint" />
            <mxPoint x="300" y="610" as="targetPoint" />
            <Array as="points">
              <mxPoint x="300" y="580" />
            </Array>
          </mxGeometry>
        </mxCell>
        <mxCell id="zHNv5ihg5opv5PIdIR2H-25" value="" style="endArrow=classic;html=1;rounded=0;" edge="1" parent="1">
          <mxGeometry width="50" height="50" relative="1" as="geometry">
            <mxPoint x="300" y="499.82" as="sourcePoint" />
            <mxPoint x="320" y="499.82" as="targetPoint" />
          </mxGeometry>
        </mxCell>
        <mxCell id="zHNv5ihg5opv5PIdIR2H-27" value="" style="endArrow=none;html=1;rounded=0;" edge="1" parent="1">
          <mxGeometry width="50" height="50" relative="1" as="geometry">
            <mxPoint x="280" y="699.81" as="sourcePoint" />
            <mxPoint x="300" y="700" as="targetPoint" />
          </mxGeometry>
        </mxCell>
        <mxCell id="zHNv5ihg5opv5PIdIR2H-28" value="" style="endArrow=classic;html=1;rounded=0;entryX=0;entryY=0.5;entryDx=0;entryDy=0;" edge="1" parent="1" target="zHNv5ihg5opv5PIdIR2H-13">
          <mxGeometry width="50" height="50" relative="1" as="geometry">
            <mxPoint x="300" y="700" as="sourcePoint" />
            <mxPoint x="300" y="640" as="targetPoint" />
            <Array as="points">
              <mxPoint x="300" y="660" />
            </Array>
          </mxGeometry>
        </mxCell>
        <mxCell id="zHNv5ihg5opv5PIdIR2H-31" value="" style="endArrow=classic;html=1;rounded=0;entryX=0;entryY=0.5;entryDx=0;entryDy=0;" edge="1" parent="1" target="zHNv5ihg5opv5PIdIR2H-14">
          <mxGeometry width="50" height="50" relative="1" as="geometry">
            <mxPoint x="300" y="700" as="sourcePoint" />
            <mxPoint x="300" y="750" as="targetPoint" />
            <Array as="points">
              <mxPoint x="300" y="740" />
            </Array>
          </mxGeometry>
        </mxCell>
        <mxCell id="zHNv5ihg5opv5PIdIR2H-32" value="" style="endArrow=none;html=1;rounded=0;" edge="1" parent="1">
          <mxGeometry width="50" height="50" relative="1" as="geometry">
            <mxPoint x="160" y="419.44" as="sourcePoint" />
            <mxPoint x="180" y="419.44" as="targetPoint" />
          </mxGeometry>
        </mxCell>
        <mxCell id="zHNv5ihg5opv5PIdIR2H-33" value="" style="endArrow=classic;html=1;rounded=0;entryX=0;entryY=0.5;entryDx=0;entryDy=0;" edge="1" parent="1" target="zHNv5ihg5opv5PIdIR2H-2">
          <mxGeometry width="50" height="50" relative="1" as="geometry">
            <mxPoint x="180" y="420" as="sourcePoint" />
            <mxPoint x="180" y="190" as="targetPoint" />
            <Array as="points">
              <mxPoint x="180" y="220" />
            </Array>
          </mxGeometry>
        </mxCell>
        <mxCell id="zHNv5ihg5opv5PIdIR2H-35" value="" style="endArrow=classic;html=1;rounded=0;entryX=0;entryY=0.5;entryDx=0;entryDy=0;" edge="1" parent="1" target="zHNv5ihg5opv5PIdIR2H-4">
          <mxGeometry width="50" height="50" relative="1" as="geometry">
            <mxPoint x="180" y="420" as="sourcePoint" />
            <mxPoint x="180" y="750" as="targetPoint" />
            <Array as="points">
              <mxPoint x="180" y="700" />
            </Array>
          </mxGeometry>
        </mxCell>
        <mxCell id="zHNv5ihg5opv5PIdIR2H-36" value="" style="endArrow=classic;html=1;rounded=0;" edge="1" parent="1">
          <mxGeometry width="50" height="50" relative="1" as="geometry">
            <mxPoint x="180" y="499.79" as="sourcePoint" />
            <mxPoint x="200" y="499.79" as="targetPoint" />
          </mxGeometry>
        </mxCell>
      </root>
    </mxGraphModel>
  </diagram>
</mxfile>
